<?xml version="1.0" standalone="no"?>
<!DOCTYPE svg PUBLIC "-//W3C//DTD SVG 20010904//EN"
 "http://www.w3.org/TR/2001/REC-SVG-20010904/DTD/svg10.dtd">
<svg version="1.0" xmlns="http://www.w3.org/2000/svg"
 width="386.000000pt" height="386.000000pt" viewBox="0 0 386.000000 386.000000"
 preserveAspectRatio="xMidYMid meet">
<metadata>
Created by potrace 1.14, written by Peter Selinger 2001-2017
</metadata>
<g transform="translate(0.000000,386.000000) scale(0.100000,-0.100000)"
fill="#000000" stroke="none">
<path d="M753 3669 c-51 -23 -94 -65 -119 -116 -18 -37 -19 -87 -19 -1623 0
-1543 1 -1586 19 -1624 11 -21 35 -53 54 -72 70 -68 10 -65 1217 -62 1043 3
1092 4 1128 22 21 10 53 34 71 52 70 70 66 -6 66 1346 l0 1218 -440 440 -440
440 -748 -1 c-715 -1 -749 -2 -789 -20z"/>
</g>
</svg>
